<?xml version="1.0" standalone="no"?>
<!DOCTYPE svg PUBLIC "-//W3C//DTD SVG 20010904//EN"
 "http://www.w3.org/TR/2001/REC-SVG-20010904/DTD/svg10.dtd">
<svg version="1.0" xmlns="http://www.w3.org/2000/svg"
 width="500.000000pt" height="500.000000pt" viewBox="0 0 500.000000 500.000000"
 preserveAspectRatio="xMidYMid meet">

<g transform="translate(0.000000,500.000000) scale(0.100000,-0.100000)"
fill="#000000" stroke="none">
<path d="M0 2500 l0 -2500 2500 0 2500 0 0 2500 0 2500 -2500 0 -2500 0 0
-2500z m3140 1665 c14 -15 28 -62 50 -170 16 -83 32 -160 35 -172 l5 -23 433
-1 c463 0 492 -3 513 -49 6 -14 24 -167 40 -341 l28 -317 49 -6 c201 -23 278
-284 121 -410 -37 -30 -103 -56 -140 -56 -16 0 -25 -7 -28 -22 -3 -13 -35
-401 -71 -863 -36 -462 -71 -853 -77 -868 -6 -15 -19 -32 -29 -37 -11 -6 -596
-10 -1571 -10 -1685 0 -1588 -3 -1601 52 -3 13 -35 401 -72 863 -36 462 -68
850 -70 861 -4 17 -15 23 -53 28 -67 9 -134 54 -169 113 -24 40 -28 59 -28
119 0 61 4 77 30 119 37 61 103 103 171 111 l50 6 30 330 c28 304 32 330 52
351 l23 22 494 3 494 3 10 52 c6 29 22 106 35 172 21 101 28 123 51 142 l27
23 574 -2 c559 -3 574 -3 594 -23z"/>
<path d="M2036 3938 c-9 -51 -20 -103 -23 -115 l-5 -23 531 0 531 0 -5 23 c-3
12 -13 63 -23 112 l-18 90 -485 3 -485 2 -18 -92z"/>
<path d="M960 3618 c0 -27 -38 -438 -45 -490 l-5 -38 637 0 638 0 26 33 c55
68 189 127 291 127 96 0 250 -71 293 -136 l15 -24 640 0 640 0 -5 38 c-7 52
-45 463 -45 490 l0 22 -1540 0 -1540 0 0 -22z"/>
<path d="M2426 3076 c-54 -20 -85 -45 -121 -95 -24 -34 -30 -54 -33 -109 -4
-76 9 -117 53 -170 44 -52 99 -76 175 -76 164 0 267 143 219 305 -35 115 -180
187 -293 145z"/>
<path d="M682 2907 c-29 -31 -29 -80 0 -107 21 -20 31 -20 725 -20 l703 0 0
75 0 75 -703 0 -704 0 -21 -23z"/>
<path d="M2890 2855 l0 -75 703 0 704 0 21 23 c29 31 29 77 -1 105 l-23 22
-702 0 -702 0 0 -75z"/>
<path d="M915 2563 c8 -76 125 -1543 125 -1565 0 -17 36 -18 610 -18 l610 0 0
129 0 129 -55 31 c-117 66 -224 209 -260 347 -24 94 -20 231 11 322 30 92 98
197 162 252 65 56 199 123 232 115 55 -13 60 -32 60 -216 l0 -169 90 0 90 0 0
169 c0 146 2 172 18 189 31 38 61 36 151 -9 194 -97 311 -289 311 -508 0 -139
-41 -255 -129 -364 -39 -48 -121 -117 -168 -141 l-33 -17 0 -129 0 -130 610 0
c583 0 610 1 610 18 0 23 117 1487 125 1565 l6 57 -637 0 -636 0 -46 -45 c-55
-55 -128 -92 -210 -107 -115 -21 -248 21 -337 108 l-46 44 -635 0 -635 0 6
-57z"/>
<path d="M2198 2048 c-88 -96 -129 -227 -109 -349 23 -138 101 -245 230 -313
39 -20 75 -45 81 -56 6 -10 10 -92 10 -184 l0 -166 90 0 90 0 0 168 c0 194 1
197 85 236 75 34 159 115 195 190 61 124 61 245 1 370 -29 61 -99 146 -120
146 -7 0 -11 -42 -11 -134 0 -74 -3 -142 -6 -151 -15 -37 -56 -45 -234 -45
-178 0 -219 8 -234 45 -3 9 -6 77 -6 151 0 92 -4 134 -11 134 -6 0 -29 -19
-51 -42z"/>
</g>
</svg>
